<svg xmlns="http://www.w3.org/2000/svg" viewBox="0 0 1280 748" width="1280" height="748" role="img" aria-labelledby="t d">
  <title id="t">Как проект хранит данные</title>
  <desc id="d">Документ парсится фоновым воркером Celery и режется на чанки по 400 слов с overlap 60; для каждого чанка считаются dense- и sparse-вектор, и чанк становится одной точкой коллекции knowledge_chunks с payload; метаданные, версии, права и диалоги хранятся в PostgreSQL; запрос переписывается по истории диалога, идёт параллельно в dense и sparse поиск с фильтром по базе знаний, результаты объединяются через RRF, переранжируются cross-encoder и собираются в контекст для локальной LLM.</desc>
  <defs>
    <style>
      .bg   { fill: #08080d; }
      .card { fill: #101018; }
      .lbl  { font-family: -apple-system, BlinkMacSystemFont, "Segoe UI", Roboto, Helvetica, Arial, sans-serif; fill: #e8eaf2; }
      .mono { font-family: ui-monospace, SFMono-Regular, "SF Mono", Menlo, Consolas, monospace; fill: #e8eaf2; }
      .dim  { fill: #9aa3b8; }
      .h1   { font-size: 21px; font-weight: 700; }
      .h2   { font-size: 16px; font-weight: 700; }
      .cap  { font-size: 12px; font-weight: 700; letter-spacing: 1.3px; }
      .badge-label { fill: #e2e3e8; }
      .point-section-accent { stroke: #c43d7d; }
      .t    { font-size: 14px; }
      .s    { font-size: 12.5px; }
      .xs   { font-size: 11.5px; }
      .edge { fill: none; stroke: #cfd6e6; stroke-width: 2; stroke-linecap: round; stroke-linejoin: round; }
      .pink { stroke: #ec4899; } .cyan { stroke: #22d3ee; } .yellow { stroke: #eab308; }
      .violet { stroke: #9c78d3; } .blue { stroke: #60a5fa; } .green { stroke: #2fb88a; }
      .blue-pink-mix { stroke: #9c78d3; }
      .box  { fill: #101018; stroke-width: 2; }
      .fill-blue { fill: #0d1d33; } .fill-pink { fill: #2a0b1b; }
      .fill-cyan { fill: #08262e; } .fill-yellow { fill: #292106; }
      .fill-violet { fill: #1b1429; } .fill-green { fill: #0b231c; }
      .fill-blue-pink-mix { fill: #1b1429; }
      .fill-process { fill: #121722; }
      .soft { filter: url(#shadow); }
    </style>
    <marker id="a" viewBox="0 0 10 10" refX="9" refY="5" markerWidth="7" markerHeight="7" orient="auto-start-reverse"><path d="M0 0 L10 5 L0 10 z" fill="#cfd6e6"/></marker>
    <marker id="ab" viewBox="0 0 10 10" refX="9" refY="5" markerWidth="7" markerHeight="7" orient="auto-start-reverse"><path d="M0 0 L10 5 L0 10 z" fill="#60a5fa"/></marker>
    <marker id="ap" viewBox="0 0 10 10" refX="9" refY="5" markerWidth="7" markerHeight="7" orient="auto-start-reverse"><path d="M0 0 L10 5 L0 10 z" fill="#ec4899"/></marker>
    <marker id="am" viewBox="0 0 10 10" refX="9" refY="5" markerWidth="7" markerHeight="7" orient="auto-start-reverse"><path d="M0 0 L10 5 L0 10 z" fill="#9c78d3"/></marker>
    <marker id="ac" viewBox="0 0 10 10" refX="9" refY="5" markerWidth="7" markerHeight="7" orient="auto-start-reverse"><path d="M0 0 L10 5 L0 10 z" fill="#22d3ee"/></marker>
    <marker id="av" viewBox="0 0 10 10" refX="9" refY="5" markerWidth="7" markerHeight="7" orient="auto-start-reverse"><path d="M0 0 L10 5 L0 10 z" fill="#9c78d3"/></marker>
    <marker id="ay" viewBox="0 0 10 10" refX="9" refY="5" markerWidth="7" markerHeight="7" orient="auto-start-reverse"><path d="M0 0 L10 5 L0 10 z" fill="#eab308"/></marker>
    <filter id="shadow" x="-20%" y="-20%" width="140%" height="150%"><feDropShadow dx="0" dy="6" stdDeviation="8" flood-color="#000000" flood-opacity="0.32"/></filter>
    <linearGradient id="bg-gradient" x1="0" y1="0" x2="1" y2="1"><stop offset="0" stop-color="#0d1117"/><stop offset="1" stop-color="#0d1117"/></linearGradient>
    <radialGradient id="qdrant-glow" cx="50%" cy="48%" r="50%">
      <stop offset="0" stop-color="#ec4899" stop-opacity=".12"/>
      <stop offset=".55" stop-color="#ec4899" stop-opacity=".07"/>
      <stop offset=".7" stop-color="#ec4899" stop-opacity=".02"/>
      <stop offset=".78" stop-color="#ec4899" stop-opacity="0"/>
      <stop offset="1" stop-color="#ec4899" stop-opacity="0"/>
    </radialGradient>
    <radialGradient id="database-qdrant-glow">
      <stop offset="0" stop-color="#ec4899" stop-opacity=".17"/>
      <stop offset=".7" stop-color="#ec4899" stop-opacity=".07"/>
      <stop offset="1" stop-color="#ec4899" stop-opacity="0"/>
    </radialGradient>
    <clipPath id="canvas-clip"><rect x="0" y="0" width="1280" height="748" rx="14"/></clipPath>
  </defs>

  <rect x="0" y="0" width="1280" height="748" rx="14" fill="url(#bg-gradient)"/>

  <!-- ========== ИНДЕКСАЦИЯ ========== -->
  <text class="lbl cap dim" x="220" y="38" text-anchor="middle">ОТ ДОКУМЕНТА К ТОЧКЕ</text>

  <rect class="box blue fill-blue soft" x="40" y="52" width="360" height="76" rx="10"/>
  <g transform="translate(62,90)">
    <rect x="0" y="-16" width="26" height="32" rx="4" fill="none" stroke="#60a5fa" stroke-width="2"/>
    <path d="M6 -8 H20 M6 -1 H20 M6 6 H15" stroke="#60a5fa" stroke-width="2" fill="none"/>
  </g>
  <text class="lbl h2" x="106" y="84">Документ</text>
  <text class="lbl s dim" x="106" y="107">PDF · DOCX · HTML · MD · TXT</text>

  <path class="edge" d="M220 128 V 152" marker-end="url(#a)"/>
  <rect class="box blue fill-process" x="40" y="160" width="360" height="52" rx="10"/>
  <text class="lbl t" x="220" y="191" text-anchor="middle">Парсинг и нормализация</text>

  <path class="edge" d="M220 212 V 236" marker-end="url(#a)"/>
  <rect class="box blue fill-process" x="40" y="244" width="360" height="52" rx="10"/>
  <text class="lbl t" x="220" y="275" text-anchor="middle">Чанкинг: 400 слов / overlap 60</text>

  <path class="edge" d="M88 296 V342" marker-end="url(#a)"/>
  <path class="edge" d="M220 296 V342" marker-end="url(#a)"/>
  <path class="edge" d="M352 296 V342" marker-end="url(#a)"/>
  <rect class="box blue fill-process" x="40" y="350" width="96" height="44" rx="8"/>
  <text class="lbl s" x="88" y="377" text-anchor="middle">Чанк 0</text>
  <rect class="box blue fill-process" x="172" y="350" width="96" height="44" rx="8"/>
  <text class="lbl s" x="220" y="377" text-anchor="middle">Чанк 1</text>
  <text class="lbl h2 dim" x="290" y="379" text-anchor="middle">…</text>
  <rect class="box blue fill-process" x="304" y="350" width="96" height="44" rx="8"/>
  <text class="lbl s" x="352" y="377" text-anchor="middle">Чанк N</text>

  <!-- Прямая связь между углами синей и фиолетовой рамок. -->
  <path class="edge blue" d="M398.4 393.7 L496.9 511.5" marker-end="url(#ab)"/>
  <rect class="soft fill-blue-pink-mix blue-pink-mix" x="504" y="520" width="176" height="44" rx="8" stroke-width="2"/>
  <text class="lbl t" x="592" y="547" text-anchor="middle"><tspan>1 чанк</tspan><tspan dx="10">→</tspan><tspan dx="10">1 точка</tspan></text>
  <path class="fill-blue soft" d="M64 488 H368 V699 C368 712 300 721 216 721 C132 721 64 712 64 699 Z" stroke="#60a5fa" stroke-width="2"/>
  <ellipse cx="216" cy="488" rx="152" ry="29" fill="#14283d" stroke="#60a5fa" stroke-width="2"/>
  <path d="M64 558.333 C64 571.333 132 580.333 216 580.333 C300 580.333 368 571.333 368 558.333" fill="none" stroke="#60a5fa" stroke-width="1.8" stroke-opacity=".62"/>
  <path d="M64 628.667 C64 641.667 132 650.667 216 650.667 C300 650.667 368 641.667 368 628.667" fill="none" stroke="#60a5fa" stroke-width="1.8" stroke-opacity=".62"/>
  <path class="edge blue" d="M40 90 H22 V540 H53" marker-end="url(#ab)"/>
  <text class="lbl h2" x="216" y="494" text-anchor="middle">PostgreSQL</text>
  <text class="lbl t" x="216" y="542" text-anchor="middle">документы · версии</text>
  <text class="lbl t" x="216" y="566" text-anchor="middle">права · диалоги</text>
  <text class="lbl t" x="216" y="608" text-anchor="middle">задачи индексации</text>
  <text class="lbl t" x="216" y="632" text-anchor="middle">пользователи</text>
  <path id="postgres-history-line" d="M82 671 Q216 687 350 671" fill="none"/>
  <path id="postgres-qdrant-line" d="M82 692 Q216 710 350 692" fill="none"/>
  <text class="lbl t dim" text-anchor="middle"><textPath href="#postgres-history-line" startOffset="50%">история версий сохраняется здесь;</textPath></text>
  <text class="lbl t dim" text-anchor="middle"><textPath href="#postgres-qdrant-line" startOffset="50%">в Qdrant старые точки удаляются</textPath></text>

  <!-- ========== QDRANT: ОБЛАКО ИЗ database-shapes-dark.svg ========== -->
  <text class="lbl cap dim" x="608" y="44" text-anchor="middle">ВЕКТОРНАЯ БАЗА</text>
  <g transform="translate(-52 126) scale(.68)">
    <ellipse cx="971" cy="256" rx="304" ry="218" fill="url(#database-qdrant-glow)"/>
    <g fill="#8e2c60" stroke="#ec4899" stroke-width="1.2">
      <circle cx="707" cy="176" r="7"/><circle cx="739" cy="151" r="7"/>
      <circle cx="774" cy="168" r="7"/><circle cx="721" cy="211" r="7"/>
      <circle cx="757" cy="204" r="7"/><circle cx="790" cy="219" r="7"/>
      <circle cx="747" cy="240" r="7"/>

      <circle cx="916" cy="91" r="7"/><circle cx="949" cy="112" r="7"/>
      <circle cx="984" cy="91" r="7"/><circle cx="1017" cy="113" r="7"/>
      <circle cx="1051" cy="91" r="7"/><circle cx="1081" cy="116" r="7"/>
      <circle cx="1037" cy="143" r="7"/>

      <circle cx="1160" cy="190" r="7"/><circle cx="1226" cy="235" r="7"/>
      <circle cx="1165" cy="286" r="7"/><circle cx="1196" cy="310" r="7"/>

      <circle cx="822" cy="355" r="7"/><circle cx="856" cy="377" r="7"/>
      <circle cx="891" cy="356" r="7"/><circle cx="923" cy="383" r="7"/>
      <circle cx="956" cy="361" r="7"/><circle cx="990" cy="389" r="7"/>
      <circle cx="1024" cy="365" r="7"/><circle cx="1058" cy="392" r="7"/>
    </g>
    <g fill="#ec4899" stroke="#ffd0e5" stroke-width="1.5">
      <circle cx="1192" cy="211" r="7"/><circle cx="1168" cy="241" r="7"/>
      <circle cx="1235" cy="285" r="7"/>
    </g>
    <circle cx="1202" cy="263" r="8" fill="#fff1f7" stroke="#ec4899" stroke-width="3"/>
    <text class="lbl" x="971" y="230" text-anchor="middle" font-size="34" font-weight="750">Qdrant</text>
    <text class="mono" x="971" y="279" text-anchor="middle" font-size="29">knowledge_chunks</text>
  </g>
  <path class="edge pink" d="M592.5 518 L615.2 417.7" marker-end="url(#ap)"/>

  <!-- ========== СТРУКТУРА ОДНОЙ ТОЧКИ / ЧАНКА ========== -->
  <rect class="soft point-section-accent" x="816" y="34" width="442" height="546" rx="14" fill="#1c0f19" stroke-width="2.5"/>
  <rect x="917" y="21" width="240" height="26" rx="13" fill="#c43d7d"/>
  <text class="lbl cap badge-label" x="1037" y="39" text-anchor="middle">СТРУКТУРА ТОЧКИ QDRANT</text>

  <g transform="translate(0 -17.5)">
  <rect x="832" y="78" width="410" height="100" rx="10" fill="#383842" stroke="#cfd6e6" stroke-width="1.6"/>
  <text class="lbl h2" x="1037" y="107" text-anchor="middle">1. ID</text>
  <rect x="850" y="126" width="374" height="36" rx="6" fill="#292930" stroke="#cfd6e6" stroke-width="1.4"/>
  <text class="mono s" x="1037" y="149" text-anchor="middle">UUIDv5(document_id / version / chunk_index)</text>
  </g>

  <g transform="translate(0 -5.5)">
  <rect x="832" y="178" width="410" height="168" rx="10" fill="#24170c" stroke="#af5800" stroke-width="1.6"/>
  <text class="lbl h2" x="1037" y="210" text-anchor="middle">2. Векторы</text>
  <g transform="translate(0 4)">
  <rect x="848" y="228" width="180" height="62" rx="7" fill="#3b3b08" stroke="#afaf00" stroke-width="1.4"/>
  <text class="mono s" x="938" y="254" text-anchor="middle">dense</text>
  <text class="lbl s" x="938" y="275" text-anchor="middle">768 чисел · cosine</text>
  <rect x="1040" y="228" width="186" height="62" rx="7" fill="#3b0a0a" stroke="#af0000" stroke-width="1.4"/>
  <text class="mono s" x="1133" y="252" text-anchor="middle">sparse</text>
  <text class="mono s" x="1133" y="276" text-anchor="middle">indices[] + values[]</text>
  <path d="M998 302 L1026 314 M1076 302 L1048 314" fill="none" stroke="#af5800" stroke-width="2" stroke-linecap="round"/>
  <circle cx="1037" cy="323" r="4" fill="#af5800"/>
  </g>
  </g>

  <g transform="translate(0 10.5)">
  <rect x="832" y="342" width="410" height="214" rx="10" fill="#0b231c" stroke="#2fb88a" stroke-width="1.6"/>
  <text class="lbl h2" x="1037" y="366.5" text-anchor="middle" dominant-baseline="middle">3. Payload</text>
  <text class="lbl s dim" x="1212" y="365.5" text-anchor="end" dominant-baseline="middle">метаданные</text>
  <rect x="850" y="387" width="374" height="118" rx="6" fill="#0c1d19" stroke="#2fb88a" stroke-width="1.4"/>
  <path d="M958 401 H1094 M1003 419 H1094 M904 455 H1094" fill="none" stroke="#9aa3b8" stroke-width="1" stroke-linecap="round"/>
  <text class="mono s" x="862" y="405">document_id</text>
  <text class="lbl s dim" x="1212" y="405" text-anchor="end">+ индекс payload</text>
  <text class="mono s" x="862" y="423">knowledge_base_id</text>
  <text class="lbl s dim" x="1212" y="423" text-anchor="end">+ индекс payload</text>
  <text class="mono s" x="862" y="441">document_name · chunk_index</text>
  <text class="mono s" x="862" y="459">text</text>
  <text class="lbl s dim" x="1212" y="459" text-anchor="end">источник цитаты</text>
  <text class="mono s" x="862" y="477">page · section</text>
  <text class="mono s" x="862" y="495">version · embedding_version</text>
  <rect x="850" y="513" width="374" height="30" rx="6" fill="none" stroke="#2fb88a" stroke-width="1.4" stroke-dasharray="6 5"/>
  <text class="lbl s" x="1037" y="533" text-anchor="middle">коллекция и индексы создаются при первой индексации</text>
  </g>

  <!-- переиндексация: относится к точкам Qdrant, поэтому стоит рядом с ними -->
  <rect class="soft" x="816" y="600" width="442" height="121" rx="10" fill="#1b1429" stroke="#9c78d3" stroke-width="2"/>
  <text class="lbl h2" x="1037" y="626" text-anchor="middle">Новая версия документа</text>
  <path d="M937 647.5 H1137" fill="none" stroke="#e8eaf2" stroke-width="1.4" stroke-opacity=".5" stroke-linecap="round"/>
  <circle cx="927" cy="647.5" r="10" fill="#1b1429" stroke="#e8eaf2" stroke-width="1.4"/>
  <text class="lbl xs" x="927" y="651.5" text-anchor="middle">1</text>
  <circle cx="1147" cy="647.5" r="10" fill="#1b1429" stroke="#e8eaf2" stroke-width="1.4"/>
  <text class="lbl xs" x="1147" y="651.5" text-anchor="middle">2</text>
  <text class="lbl" x="927" y="675" text-anchor="middle" font-size="12.5">upsert всех точек</text>
  <text class="lbl" x="927" y="688" text-anchor="middle" font-size="12.5">версии N+1</text>
  <text class="lbl" x="1147" y="675" text-anchor="middle" font-size="12.5">затем удаление точек</text>
  <text class="lbl" x="1147" y="688" text-anchor="middle" font-size="12.5">версии N</text>
  <text class="lbl dim" x="1037" y="709" text-anchor="middle" font-size="12.5">обратный порядок оставил бы документ без индекса при сбое</text>

</svg>
